<?xml version="1.0" encoding="UTF-8"?><svg id="a" xmlns="http://www.w3.org/2000/svg" viewBox="0 0 490.46 511"><defs><style>.b{fill:#f5f5f5;}</style></defs><path class="b" d="M450.96,496H162.96c-13.51,0-24.5-10.99-24.5-24.5V39.5c0-13.51,10.99-24.5,24.5-24.5h216.5l96,96V471.5c0,13.51-10.99,24.5-24.5,24.5Z"/><path d="M490.43,102.75c-.02-.18-.05-.36-.08-.54-.01-.06-.02-.13-.03-.19-.04-.21-.1-.42-.16-.62,0-.03-.01-.06-.02-.09-.06-.21-.14-.41-.22-.61-.01-.03-.02-.05-.03-.08-.08-.19-.17-.37-.26-.55-.02-.04-.03-.07-.05-.11-.09-.17-.19-.33-.29-.49-.03-.05-.06-.1-.09-.15-.1-.15-.21-.29-.32-.44-.04-.05-.07-.1-.11-.15-.16-.19-.32-.37-.49-.54L392.27,2.2c-.17-.17-.36-.34-.55-.49-.05-.04-.1-.07-.15-.11-.14-.11-.29-.22-.44-.32-.05-.03-.1-.06-.14-.09-.16-.1-.32-.2-.49-.29-.04-.02-.08-.03-.11-.05-.18-.09-.36-.18-.55-.26-.03-.01-.05-.02-.08-.03-.2-.08-.4-.16-.61-.22-.03,0-.06-.02-.09-.02-.2-.06-.41-.11-.62-.16-.06-.01-.13-.02-.19-.03-.18-.03-.36-.06-.54-.08-.25-.03-.5-.04-.75-.04H162.96c-21.78,0-39.5,17.72-39.5,39.5V471.5c0,21.78,17.72,39.5,39.5,39.5H450.96c21.78,0,39.5-17.72,39.5-39.5V103.5c0-.25-.01-.5-.04-.75Zm-39.46,393.25H162.96c-13.51,0-24.5-10.99-24.5-24.5V39.5c0-13.51,10.99-24.5,24.5-24.5h216.5l96,96V471.5c0,13.51-10.99,24.5-24.5,24.5Z"/><g><path d="M222.96,355c-4.14,0-7.5,3.36-7.5,7.5v32.5h-41v-32.5c0-4.14-3.36-7.5-7.5-7.5s-7.5,3.36-7.5,7.5v64c0,4.14,3.36,7.5,7.5,7.5s7.5-3.36,7.5-7.5v-16.5h41v16.5c0,4.14,3.36,7.5,7.5,7.5s7.5-3.36,7.5-7.5v-64c0-4.14-3.36-7.5-7.5-7.5Z"/><path d="M318.96,434c4.14,0,7.5-3.36,7.5-7.5v-36.92l10.07,16.78c1.35,2.26,3.8,3.64,6.43,3.64h8c2.63,0,5.08-1.38,6.43-3.64l10.07-16.78v36.92c0,4.14,3.36,7.5,7.5,7.5s7.5-3.36,7.5-7.5v-64c0-3.37-2.25-6.33-5.5-7.23-3.25-.9-6.7,.48-8.43,3.37l-21.57,35.95-21.57-35.95c-1.73-2.89-5.19-4.27-8.43-3.37-3.25,.9-5.5,3.86-5.5,7.23v64c0,4.14,3.36,7.5,7.5,7.5Z"/><path d="M246.96,370h16.5v56.5c0,4.14,3.36,7.5,7.5,7.5s7.5-3.36,7.5-7.5v-56.5h16.5c4.14,0,7.5-3.36,7.5-7.5s-3.36-7.5-7.5-7.5h-48c-4.14,0-7.5,3.36-7.5,7.5s3.36,7.5,7.5,7.5Z"/><path d="M406.96,434h40c4.14,0,7.5-3.36,7.5-7.5s-3.36-7.5-7.5-7.5h-32.5v-56.5c0-4.14-3.36-7.5-7.5-7.5s-7.5,3.36-7.5,7.5v64c0,4.14,3.36,7.5,7.5,7.5Z"/></g><g><path d="M333.34,144.88c-3.93-1.31-8.18,.81-9.49,4.74l-48,144c-1.31,3.93,.81,8.18,4.74,9.49,.79,.26,1.59,.39,2.37,.39,3.14,0,6.07-1.99,7.11-5.13l48-144c1.31-3.93-.82-8.18-4.74-9.49Z"/><path d="M264.27,162.7c-2.93-2.93-7.68-2.93-10.61,0l-56,56c-2.93,2.93-2.93,7.68,0,10.61l56,56c1.46,1.46,3.38,2.2,5.3,2.2s3.84-.73,5.3-2.2c2.93-2.93,2.93-7.68,0-10.61l-50.7-50.7,50.7-50.7c2.93-2.93,2.93-7.68,0-10.61Z"/><path d="M360.27,162.7c-2.93-2.93-7.68-2.93-10.61,0-2.93,2.93-2.93,7.68,0,10.61l50.7,50.7-50.7,50.7c-2.93,2.93-2.93,7.68,0,10.61,1.46,1.46,3.38,2.2,5.3,2.2s3.84-.73,5.3-2.2l56-56c2.93-2.93,2.93-7.68,0-10.61l-56-56Z"/></g></svg>