<?xml version="1.0" encoding="UTF-8"?>
<svg width="69px" height="46px" viewBox="0 0 69 46" version="1.1" xmlns="http://www.w3.org/2000/svg" xmlns:xlink="http://www.w3.org/1999/xlink">
    <!-- Generator: Sketch 60.1 (88133) - https://sketch.com -->
    <title>noun_Partner_511233</title>
    <desc>Created with Sketch.</desc>
    <g id="Navigation" stroke="none" stroke-width="1" fill="none" fill-rule="evenodd">
        <g id="NAVIGATION-/-DESKTOP-/-CONTACT-US-V2-_-1" transform="translate(-1195.000000, -195.000000)" fill="#ff3b00" fill-rule="nonzero">
            <g id="noun_Partner_511233" transform="translate(1195.000000, 195.000000)">
                <path d="M68.9999949,11.8727273 C68.9984268,10.8132146 68.6902931,9.73863409 68.0089492,8.85279905 L62.5417331,1.77722142 C61.6259567,0.601130671 60.2326908,0.00237914514 58.840209,0 C58.0114627,0 57.1678194,0.214916111 56.422183,0.685193799 L51.0913925,4.03978844 C50.5307931,4.4014185 49.5695415,4.64964264 48.6412203,4.64329826 C47.9198896,4.64647045 47.2228646,4.50054955 46.7626243,4.27056552 L41.5423854,1.7129845 C40.7003103,1.30297849 39.7617963,1.13485223 38.817794,1.13326613 C37.4621627,1.13961052 36.0892823,1.47665608 34.9861167,2.24987825 L34.3769059,2.68208962 C33.8900077,2.43624462 33.1459394,2.06192578 32.3030802,1.6376449 C31.2924332,1.13643833 30.1038057,0.93421099 28.9034173,0.930245748 C27.8190691,0.933417942 26.7347209,1.10233725 25.782878,1.50917106 L22.2271882,3.04371968 C21.6485555,3.29749516 20.7280748,3.46324227 19.8138666,3.45927703 C18.8996583,3.46324227 17.9807458,3.29749516 17.4021131,3.04371968 L13.843287,1.50837802 C13.1940894,1.22843194 12.5002006,1.10868163 11.8125843,1.10788859 C11.0206887,1.10868163 10.2334974,1.26649826 9.50197396,1.56627055 C8.77123461,1.86762893 8.09302696,2.31252907 7.552813,2.92317632 L1.07338169,10.2628391 C0.355187219,11.0741276 -0.00155784956,12.0955739 5.11369138e-06,13.1011592 C-0.00155784956,14.3002484 0.505725797,15.5033028 1.48422656,16.3463132 L7.52850729,21.5621924 L4.6612178,24.5876719 C3.87089027,25.4219588 3.47729461,26.5036768 3.47729461,27.5734991 C3.4757265,28.7115235 3.9226379,29.8606506 4.80783611,30.7068332 L5.38960499,31.2659323 C5.9376595,31.7917234 6.59626578,32.1263898 7.28545021,32.3048257 C6.93968191,32.9479879 6.75072463,33.653008 6.75229274,34.3596141 C6.75072463,35.4984315 7.19763604,36.6467656 8.08126613,37.4937413 L8.07969802,37.4929482 L8.66303501,38.0544265 C9.49334936,38.850647 10.569857,39.2471712 11.6306835,39.2463782 C12.2006916,39.2471712 12.7714837,39.1313862 13.3077774,38.9045743 C13.4959506,39.6770034 13.8848419,40.4113662 14.4964049,40.998222 L15.0797419,41.5597003 C15.9100563,42.3559209 16.9849958,42.7524451 18.0473904,42.751652 C18.8777048,42.7524451 19.7119394,42.505014 20.4301339,42.0244266 C20.6402607,42.7080343 21.0001419,43.3559549 21.5481965,43.882539 L22.1315334,44.4440172 C22.9602797,45.2402378 24.0367873,45.636762 25.0976139,45.635969 C26.2274373,45.636762 27.3682374,45.1878966 28.2110967,44.2980963 L30.7451627,41.6215581 L34.1879486,44.8445067 C35.0119906,45.6177288 36.0696809,46.0023573 37.1140423,45.9999891 C38.2611149,46.0023573 39.4183802,45.537631 40.2628075,44.6232462 L40.8124301,44.0276668 C41.2867835,43.5121854 41.5964852,42.9023312 41.7760339,42.2655133 L43.1097116,43.5105993 C43.9353216,44.2806493 44.9914438,44.6636916 46.0342371,44.6628986 C47.1828778,44.6636916 48.3432793,44.1989653 49.1884907,43.2837875 L49.7349771,42.6890012 C50.3661415,42.0069796 50.7213184,41.1623831 50.8310862,40.2995464 C51.1831269,40.390747 51.539872,40.4526048 51.8997533,40.4526048 C53.048394,40.4526048 54.2056593,39.9886715 55.0516547,39.0742867 L55.5997092,38.4795004 C56.3657311,37.6491787 56.7467819,36.5841148 56.7452137,35.5341187 C56.7452137,35.2081758 56.6989545,34.883819 56.6276055,34.5634275 C57.5802324,34.4357467 58.5038493,34.0059145 59.2063627,33.2430019 L59.7559853,32.6474226 C60.5220071,31.817101 60.9014898,30.752037 60.9014898,29.7012479 C60.9030579,28.5449833 60.4420335,27.3784092 59.5325296,26.5282613 L58.5046334,25.5678797 L67.7815733,15.1932208 C68.6142398,14.2590099 68.9984268,13.0567485 68.9999949,11.8727273 Z M6.42690988,28.998607 C6.02390556,28.6131855 5.82475556,28.1000832 5.82318745,27.5734991 C5.82475556,27.0794299 5.99959985,26.5972565 6.35948114,26.2173864 L12.2320538,20.0189202 C12.6146727,19.6152586 13.1250926,19.4130313 13.6488414,19.4122382 C14.1388758,19.4130313 14.6179335,19.5914671 14.9966321,19.9523042 L15.5768328,20.5121963 C15.5768328,20.5121963 16.177419,21.4107201 16.1789872,21.9380973 C16.177419,22.3330354 16.0598108,22.7176639 15.8316507,23.0507442 C15.8120494,23.0705704 9.49334936,29.7313837 9.49334936,29.7313837 C9.15777378,29.9716774 8.7610419,30.0953929 8.35725352,30.096979 C7.86565098,30.0953929 7.3850252,29.9177501 7.00946281,29.5577061 L6.42690988,28.998607 Z M11.6322517,36.8846801 C11.1406491,36.883887 10.6615914,36.7054512 10.2844609,36.3454072 L9.70112396,35.784722 L9.69955585,35.7839289 C9.29968775,35.4000935 9.09896964,34.8854051 9.09896964,34.358821 C9.09896964,33.8647519 9.27538204,33.3825785 9.63369522,33.0027083 C9.63369522,33.0027083 17.4617013,24.7605565 17.5275619,24.6812516 C17.9015562,24.3172424 18.3837501,24.12929 18.8816251,24.1284969 C19.3732276,24.12929 19.8522853,24.3069328 20.2294158,24.6677698 L20.8127528,25.2292481 L20.8127528,25.2292481 C21.214189,25.6130835 21.413339,26.1269788 21.4149071,26.654356 C21.413339,27.1484252 21.2369266,27.6313916 20.8786134,28.0112618 L13.0474711,36.2795842 C12.6656363,36.6816597 12.1560005,36.883094 11.6322517,36.8846801 Z M18.0489586,40.3899539 C17.557356,40.3891609 17.0782984,40.210725 16.7011678,39.849888 L16.1162627,39.2892028 C15.7148265,38.9045743 15.5141084,38.390679 15.5141084,37.8640948 C15.5141084,37.4231599 15.6622948,36.9957069 15.9461228,36.6396281 L21.3976579,30.8844761 C21.7653797,30.5490166 22.2264041,30.3721668 22.7038937,30.3721668 C23.1954962,30.3729599 23.6745539,30.5506027 24.0516844,30.9114397 L24.6365895,31.472918 L24.6365895,31.472918 C25.0364576,31.8567534 25.2371757,32.3706487 25.2387438,32.8972328 C25.2371757,33.392095 25.0591952,33.8750615 24.7024501,34.2541386 L19.463394,39.784065 C19.0823432,40.1869335 18.5727074,40.3883678 18.0489586,40.3899539 Z M26.5136174,42.6683819 C26.1325666,43.0712505 25.6221467,43.2726848 25.0983979,43.2742709 C24.6067954,43.2734778 24.1277377,43.095042 23.7506072,42.7342049 L23.1672702,42.1735197 C22.7674021,41.7896843 22.566684,41.2749959 22.5651159,40.7484118 C22.566684,40.2535496 22.7430964,39.7705831 23.1014096,39.3922991 L26.4077699,35.9005071 C26.7903888,35.4976385 27.3008087,35.2954111 27.8245575,35.2946181 C28.3145919,35.2954111 28.7952177,35.473054 29.1723482,35.834684 L29.7572533,36.3953692 L29.7572533,36.3953692 C30.1571214,36.7792047 30.3562714,37.2931 30.3578395,37.8196841 C30.3562714,38.3145463 30.179859,38.7975128 29.8215458,39.1765899 L26.5136174,42.6683819 Z M58.0381206,31.0414996 L57.4900661,31.6362859 C57.1074472,32.0502572 56.5884027,32.259622 56.0568134,32.260415 C55.5746195,32.259622 55.1026183,32.0883235 54.72784,31.7377961 L45.491671,23.0983271 L43.8945507,24.8279656 L53.7807014,34.0915637 C54.1923304,34.4769852 54.3993209,35.0003971 54.4024571,35.5349118 C54.3993209,36.0218435 54.2291809,36.4960864 53.8818445,36.8735774 L53.3353581,37.4683637 C52.9527392,37.882335 52.4336948,38.0909067 51.9021054,38.0924928 C51.4199115,38.0909067 50.9463423,37.9188152 50.5747001,37.5706669 L41.336179,28.9311979 L39.7406268,30.6608364 L47.939491,38.3296142 C48.3346547,38.7126566 48.5369409,39.2225867 48.5369409,39.7459986 C48.5369409,40.2313443 48.366801,40.7063802 48.0194646,41.0830782 L47.4714101,41.6778645 C47.0903593,42.0918358 46.5697467,42.3012005 46.0365892,42.3027866 C45.5528273,42.3012005 45.0808261,42.129109 44.7076159,41.7809608 L36.5252169,34.1399397 L36.5236488,34.1399397 L36.5220807,34.1383536 L34.9296648,35.8711643 L34.9312329,35.8727504 L34.9312329,35.8727504 L34.961811,35.9020932 L39.060067,39.7277585 C39.4230845,40.1052496 39.6112577,40.5890091 39.6128259,41.0894226 C39.6112577,41.5723891 39.4426859,42.0450459 39.0953495,42.4217439 L38.547295,43.0173232 C38.1646761,43.4312945 37.6471997,43.6390731 37.1171785,43.6406592 C36.6349846,43.6390731 36.1629834,43.4677747 35.7897732,43.1180404 L32.2215385,39.7761345 C32.5320243,39.1599359 32.7053005,38.4913961 32.7053005,37.8204772 C32.7068686,36.6824528 32.2599572,35.5349118 31.3763271,34.687143 L30.791422,34.1256648 C29.9626757,33.3302373 28.8877362,32.93292 27.8269097,32.9345061 C27.7445839,32.9345061 27.661474,32.9535393 27.5807164,32.9582976 C27.5807164,32.9384714 27.5854207,32.9178521 27.5854207,32.8980259 C27.5869888,31.7600015 26.2564473,29.7631057 26.2564473,29.7631057 L25.6731103,29.2032135 C25.0529227,28.6084272 24.2963096,28.2372806 23.5091182,28.0881875 C23.6714176,27.6234611 23.7631521,27.1397016 23.7631521,26.6551491 C23.7631521,25.5171246 23.3178088,24.3687906 22.4341787,23.5218149 L21.8508417,22.9603367 C21.0205274,22.1641161 19.9455878,21.7667989 18.8847613,21.7675919 C18.7608806,21.7675919 18.638568,21.7929694 18.5154713,21.8040721 C18.481757,20.7112515 18.0466064,19.6192238 17.1998269,18.8055562 L17.1998269,18.8047632 L16.618058,18.2456641 C15.7877437,17.4486504 14.7128041,17.0513332 13.6519776,17.0521262 C12.5205861,17.0513332 11.381354,17.5001986 10.5384948,18.3899989 L9.15228539,19.8531731 L3.01156588,14.5556099 C2.57014286,14.1733606 2.34982338,13.6451904 2.34825527,13.1027453 C2.34982338,12.6483286 2.50271413,12.2034285 2.82888104,11.8338679 L9.30831235,4.49420516 C9.56548243,4.20236336 9.94574915,3.93827825 10.3910924,3.75508407 C10.8364357,3.5718899 11.3421513,3.47117275 11.8149365,3.4719658 C12.2265654,3.4719658 12.6131046,3.5473054 12.9220223,3.68212362 L16.4792803,5.21746528 C17.4820867,5.64491836 18.6464085,5.82018205 19.8162187,5.82414729 C20.9875971,5.82018205 22.1503508,5.64491836 23.1531572,5.21746528 L26.7088471,3.68291667 C27.2569016,3.44103692 28.0840797,3.29115077 28.9065535,3.29420465 C29.8160574,3.28877163 30.7271295,3.47910324 31.2555826,3.75191188 C31.5911582,3.92083118 31.9094845,4.08102696 32.2050733,4.2309131 L28.5788185,6.80911338 C27.4137126,7.63784894 26.7856845,8.95589534 26.7872526,10.2858375 C26.7856845,11.1661212 27.0616719,12.0622658 27.6230553,12.8227992 L27.6214872,12.8212131 L28.1005449,13.4723059 C29.0100488,14.6951865 30.4284045,15.3240738 31.8459761,15.327246 C32.6464963,15.327246 33.4619136,15.1226395 34.1887327,14.6817046 L36.3574291,13.3644513 C36.7996362,13.0908496 37.4676511,12.917965 38.1584036,12.9211372 C38.9699007,12.9163789 39.7876701,13.1590517 40.2792727,13.5246471 L46.2788623,17.8753105 C47.6141081,18.8428295 49.7890769,20.637498 50.9941696,21.7667989 L57.9385456,28.261072 C58.3501745,28.6472866 58.5571651,29.1683194 58.5587332,29.703627 C58.5579491,30.1889726 58.3862411,30.6640086 58.0381206,31.0414996 Z M66.0401869,13.6142615 L56.7891208,23.9611637 L52.5889377,20.0339881 C51.2732932,18.8055562 49.1038128,17.0140599 47.6486065,15.9569264 L41.650585,11.606263 C40.6336656,10.8774516 39.3885861,10.5626114 38.1576196,10.5578531 C37.110122,10.5610253 36.0547838,10.7918023 35.1437118,11.3405918 L32.9765835,12.6578452 C32.6441442,12.8600725 32.2521166,12.9631688 31.845192,12.9639618 C31.1175889,12.966341 30.3892017,12.622951 29.9830612,12.0638519 L29.5055716,11.4135523 L29.5040035,11.4119662 C29.2499697,11.065404 29.1315773,10.6768103 29.1300092,10.2834583 C29.1331454,9.68867204 29.4044285,9.11133282 29.9297454,8.73622094 L36.341748,4.17936496 C36.8960749,3.77332419 37.8824163,3.48861982 38.8193621,3.49575725 C39.4701278,3.49258506 40.0918835,3.62502414 40.5176254,3.8375611 L45.7378643,6.39514213 C46.6277668,6.82735349 47.6321414,7.00420328 48.6427884,7.00658243 C49.9411836,7.00023804 51.2536919,6.71474062 52.3349038,6.04302865 L57.6672625,2.68764096 C58.0075424,2.47272484 58.4160352,2.36169238 58.8417771,2.36169238 C59.5615396,2.36011198 60.2828703,2.6900201 60.691363,3.22849995 L66.1585792,10.3040776 C66.4737694,10.7093253 66.6564562,11.2811132 66.6564562,11.8735203 C66.6572383,12.5365088 66.425942,13.1883945 66.0401869,13.6142615 Z" id="Shape"></path>
            </g>
        </g>
    </g>
</svg>