<?xml version="1.0" encoding="UTF-8"?>
<svg width="54px" height="62px" viewBox="0 0 54 62" version="1.1" xmlns="http://www.w3.org/2000/svg" xmlns:xlink="http://www.w3.org/1999/xlink">
    <!-- Generator: Sketch 60.1 (88133) - https://sketch.com -->
    <title>Group 2</title>
    <desc>Created with Sketch.</desc>
    <g id="Navigation" stroke="none" stroke-width="1" fill="none" fill-rule="evenodd">
        <g id="NAVIGATION-/-DESKTOP-/-CONTACT-US-V2-_-1" transform="translate(-1202.000000, -390.000000)" fill="#000000" fill-rule="nonzero">
            <g id="Group-2" transform="translate(1201.500000, 390.000000)">
                <path d="M18.1666667,41 L12.8333333,41 C12.0973333,41 11.5,41.56 11.5,42.25 L11.5,49.75 C11.5,50.44 12.0973333,51 12.8333333,51 L18.1666667,51 C18.9026667,51 19.5,50.44 19.5,49.75 L19.5,42.25 C19.5,41.56 18.9026667,41 18.1666667,41 Z M16.8333333,48.5 L14.1666667,48.5 L14.1666667,43.5 L16.8333333,43.5 L16.8333333,48.5 Z" id="Shape"></path>
                <path d="M37.8333333,51 L43.1666667,51 C43.9026667,51 44.5,50.44 44.5,49.75 L44.5,42.25 C44.5,41.56 43.9026667,41 43.1666667,41 L37.8333333,41 C37.0973333,41 36.5,41.56 36.5,42.25 L36.5,49.75 C36.5,50.44 37.0973333,51 37.8333333,51 Z M39.1666667,43.5 L41.8333333,43.5 L41.8333333,48.5 L39.1666667,48.5 L39.1666667,43.5 Z" id="Shape"></path>
                <path d="M18.1666667,26 L12.8333333,26 C12.0973333,26 11.5,26.56 11.5,27.25 L11.5,34.75 C11.5,35.44 12.0973333,36 12.8333333,36 L18.1666667,36 C18.9026667,36 19.5,35.44 19.5,34.75 L19.5,27.25 C19.5,26.56 18.9026667,26 18.1666667,26 Z M16.8333333,33.5 L14.1666667,33.5 L14.1666667,28.5 L16.8333333,28.5 L16.8333333,33.5 Z" id="Shape"></path>
                <path d="M37.8333333,36 L43.1666667,36 C43.9026667,36 44.5,35.44 44.5,34.75 L44.5,27.25 C44.5,26.56 43.9026667,26 43.1666667,26 L37.8333333,26 C37.0973333,26 36.5,26.56 36.5,27.25 L36.5,34.75 C36.5,35.44 37.0973333,36 37.8333333,36 Z M39.1666667,28.5 L41.8333333,28.5 L41.8333333,33.5 L39.1666667,33.5 L39.1666667,28.5 Z" id="Shape"></path>
                <path d="M18.1666667,10 L12.8333333,10 C12.0973333,10 11.5,10.56 11.5,11.25 L11.5,18.75 C11.5,19.44 12.0973333,20 12.8333333,20 L18.1666667,20 C18.9026667,20 19.5,19.44 19.5,18.75 L19.5,11.25 C19.5,10.56 18.9026667,10 18.1666667,10 Z M16.8333333,17.5 L14.1666667,17.5 L14.1666667,12.5 L16.8333333,12.5 L16.8333333,17.5 Z" id="Shape"></path>
                <path d="M37.8333333,20 L43.1666667,20 C43.9026667,20 44.5,19.44 44.5,18.75 L44.5,11.25 C44.5,10.56 43.9026667,10 43.1666667,10 L37.8333333,10 C37.0973333,10 36.5,10.56 36.5,11.25 L36.5,18.75 C36.5,19.44 37.0973333,20 37.8333333,20 Z M39.1666667,12.5 L41.8333333,12.5 L41.8333333,17.5 L39.1666667,17.5 L39.1666667,12.5 Z" id="Shape"></path>
                <path d="M30.1666667,26 L24.8333333,26 C24.0973333,26 23.5,26.56 23.5,27.25 L23.5,34.75 C23.5,35.44 24.0973333,36 24.8333333,36 L30.1666667,36 C30.9026667,36 31.5,35.44 31.5,34.75 L31.5,27.25 C31.5,26.56 30.9026667,26 30.1666667,26 Z M28.8333333,33.5 L26.1666667,33.5 L26.1666667,28.5 L28.8333333,28.5 L28.8333333,33.5 Z" id="Shape"></path>
                <path d="M30.1666667,10 L24.8333333,10 C24.0973333,10 23.5,10.56 23.5,11.25 L23.5,18.75 C23.5,19.44 24.0973333,20 24.8333333,20 L30.1666667,20 C30.9026667,20 31.5,19.44 31.5,18.75 L31.5,11.25 C31.5,10.56 30.9026667,10 30.1666667,10 Z M28.8333333,17.5 L26.1666667,17.5 L26.1666667,12.5 L28.8333333,12.5 L28.8333333,17.5 Z" id="Shape"></path>
                <path d="M53.2142857,59.4166667 L49.3571429,59.4166667 L49.3571429,6.45833333 C49.3571429,4.32191667 47.6265714,2.58333333 45.5,2.58333333 L41.6428571,2.58333333 L41.6428571,1.29166667 C41.6428571,0.578666667 41.0668571,0 40.3571429,0 L14.6428571,0 C13.9331429,0 13.3571429,0.578666667 13.3571429,1.29166667 L13.3571429,2.58333333 L9.5,2.58333333 C7.37342857,2.58333333 5.64285714,4.32191667 5.64285714,6.45833333 L5.64285714,59.4166667 L1.78571429,59.4166667 C1.076,59.4166667 0.5,59.9953333 0.5,60.7083333 C0.5,61.4213333 1.076,62 1.78571429,62 L6.92857143,62 L22.3571429,62 C23.0668571,62 23.6428571,61.4213333 23.6428571,60.7083333 L23.6428571,43.9166667 L31.3571429,43.9166667 L31.3571429,60.7083333 C31.3571429,61.4213333 31.9331429,62 32.6428571,62 L48.0714286,62 L53.2142857,62 C53.924,62 54.5,61.4213333 54.5,60.7083333 C54.5,59.9953333 53.924,59.4166667 53.2142857,59.4166667 Z M32.6428571,41.3333333 L22.3571429,41.3333333 C21.6474286,41.3333333 21.0714286,41.912 21.0714286,42.625 L21.0714286,59.4166667 L8.21428571,59.4166667 L8.21428571,6.45833333 C8.21428571,5.74533333 8.79028571,5.16666667 9.5,5.16666667 L14.6428571,5.16666667 C15.3525714,5.16666667 15.9285714,4.588 15.9285714,3.875 L15.9285714,2.58333333 L39.0714286,2.58333333 L39.0714286,3.875 C39.0714286,4.588 39.6474286,5.16666667 40.3571429,5.16666667 L45.5,5.16666667 C46.2097143,5.16666667 46.7857143,5.74533333 46.7857143,6.45833333 L46.7857143,59.4166667 L33.9285714,59.4166667 L33.9285714,42.625 C33.9285714,41.912 33.3525714,41.3333333 32.6428571,41.3333333 Z" id="Shape"></path>
            </g>
        </g>
    </g>
</svg>