<?xml version="1.0" encoding="UTF-8"?>
<svg width="45px" height="61px" viewBox="0 0 45 61" version="1.1" xmlns="http://www.w3.org/2000/svg" xmlns:xlink="http://www.w3.org/1999/xlink">
    <!-- Generator: Sketch 60.1 (88133) - https://sketch.com -->
    <title>Group</title>
    <desc>Created with Sketch.</desc>
    <g id="Navigation" stroke="none" stroke-width="1" fill="none" fill-rule="evenodd">
        <g id="NAVIGATION-/-DESKTOP-/-CONTACT-US-V2-_-1" transform="translate(-528.000000, -292.000000)" fill="#000000" fill-rule="nonzero">
            <g id="noun_receipt_357477" transform="translate(528.000000, 292.000000)">
                <g id="Group" transform="translate(0.500000, 0.000000)">
                    <path d="M6.52698901,35.5820625 L37.472044,35.5820625 C38.1841429,35.5820625 38.7610989,35.0142383 38.7610989,34.3125 C38.7610989,33.6107617 38.1841429,33.0429375 37.472044,33.0429375 L6.52698901,33.0429375 C5.81489011,33.0429375 5.23793407,33.6107617 5.23793407,34.3125 C5.23793407,35.0142383 5.81489011,35.5820625 6.52698901,35.5820625 Z" id="Path"></path>
                    <path d="M37.472044,48.2929375 L32.3158242,48.2929375 C31.6019121,48.2929375 31.0238681,48.8607617 31.0238681,49.5625 C31.0238681,50.2642383 31.6017912,50.8320625 32.3158242,50.8320625 L37.472044,50.8320625 C38.1841429,50.8320625 38.7601319,50.2642383 38.7601319,49.5625 C38.7601319,48.8607617 38.1841429,48.2929375 37.472044,48.2929375 Z" id="Path"></path>
                    <path d="M6.52698901,40.6679375 L14.3284066,40.6679375 L37.472044,40.6642441 C38.1539231,40.6307656 38.6959451,40.0759277 38.6959451,39.3946816 C38.6959451,38.7170098 38.1539231,38.162291 37.472044,38.1288125 L14.3284066,38.125 L6.52698901,38.125 C5.81489011,38.125 5.23793407,38.6946113 5.23793407,39.3945625 C5.23793407,40.098207 5.81489011,40.6679375 6.52698901,40.6679375 Z" id="Path"></path>
                    <path d="M6.52698901,45.75 C7.23908791,45.75 7.81604396,45.1803887 7.81604396,44.4804375 C7.81604396,43.776793 7.23908791,43.2070625 6.52698901,43.2070625 C5.81489011,43.2070625 5.23793407,43.7766738 5.23793407,44.4804375 C5.23793407,45.1803887 5.81489011,45.75 6.52698901,45.75 Z" id="Path"></path>
                    <path d="M10.3951209,44.4804375 C10.3951209,45.1803887 10.9720769,45.75 11.6841758,45.75 C12.3962747,45.75 12.9741978,45.1803887 12.9741978,44.4804375 C12.9741978,43.776793 12.3962747,43.2070625 11.6841758,43.2070625 C10.9720769,43.2070625 10.3951209,43.776793 10.3951209,44.4804375 Z" id="Path"></path>
                    <path d="M16.8423297,43.2070625 C16.1302308,43.2070625 15.5523077,43.7766738 15.5523077,44.4804375 C15.5523077,45.1803887 16.1302308,45.75 16.8423297,45.75 C17.5544286,45.75 18.1313846,45.1803887 18.1313846,44.4804375 C18.1313846,43.776793 17.5544286,43.2070625 16.8423297,43.2070625 Z" id="Path"></path>
                    <path d="M21.9995165,43.2070625 C21.2874176,43.2070625 20.7104615,43.7766738 20.7104615,44.4804375 C20.7104615,45.1803887 21.2874176,45.75 21.9995165,45.75 C22.7116154,45.75 23.2885714,45.1803887 23.2885714,44.4804375 C23.2885714,43.776793 22.7116154,43.2070625 21.9995165,43.2070625 Z" id="Path"></path>
                    <path d="M27.1557363,43.2070625 C26.4455714,43.2070625 25.8676484,43.7766738 25.8676484,44.4804375 C25.8676484,45.1803887 26.4455714,45.75 27.1557363,45.75 C27.8696484,45.75 28.4476923,45.1803887 28.4476923,44.4804375 C28.4476923,43.776793 27.8697692,43.2070625 27.1557363,43.2070625 Z" id="Path"></path>
                    <path d="M32.3158242,45.75 C33.025989,45.75 33.6039121,45.1803887 33.6039121,44.4804375 C33.6039121,43.776793 33.025989,43.2070625 32.3158242,43.2070625 C31.6019121,43.2070625 31.0238681,43.7766738 31.0238681,44.4804375 C31.0238681,45.1803887 31.6019121,45.75 32.3158242,45.75 Z" id="Path"></path>
                    <path d="M37.472044,43.2070625 C36.7599451,43.2070625 36.183956,43.7766738 36.183956,44.4804375 C36.183956,45.1803887 36.7600659,45.75 37.472044,45.75 C38.184022,45.75 38.7601319,45.1803887 38.7601319,44.4804375 C38.7601319,43.776793 38.1841429,43.2070625 37.472044,43.2070625 Z" id="Path"></path>
                    <path d="M11.6841758,16.5205156 L12.1998462,16.5205156 L14.2632527,26.6875 L29.7357802,26.6875 L31.7982198,16.5205156 L32.3157033,16.5205156 C33.0258681,16.5205156 33.6037912,15.9518574 33.6037912,15.25 C33.6037912,14.5481426 33.0258681,13.9794844 32.3157033,13.9794844 L29.2766813,13.9794844 L24.976044,8.14898047 L24.976044,8.14898047 C24.7417802,7.83158984 24.3622198,7.625 23.9334615,7.625 C23.2213626,7.625 22.6444066,8.1936582 22.6444066,8.89551562 C22.6444066,9.17478125 22.737,9.43260156 22.8918462,9.64205078 L22.8908791,9.64300391 L26.0884945,13.9794844 L17.9102967,13.9794844 L21.1079121,9.64300391 L21.1069451,9.64205078 C21.2617912,9.43260156 21.3543846,9.17478125 21.3543846,8.89551562 C21.3543846,8.1936582 20.7774286,7.625 20.0653297,7.625 C19.6365714,7.625 19.2578571,7.83158984 19.0237143,8.14898047 L19.0227473,8.14898047 L14.7221099,13.9794844 L11.6841758,13.9794844 C10.9720769,13.9794844 10.3951209,14.5481426 10.3951209,15.25 C10.3951209,15.9518574 10.9721978,16.5205156 11.6841758,16.5205156 Z M27.6203956,24.1455156 L16.3776703,24.1455156 L14.8298132,16.5205156 L29.1690989,16.5205156 L27.6203956,24.1455156 Z" id="Shape"></path>
                    <path d="M20.0654505,22.875 C20.7775495,22.875 21.3545055,22.3063418 21.3545055,21.6044844 L21.3545055,19.0625 C21.3545055,18.3606426 20.7775495,17.7919844 20.0654505,17.7919844 C19.3533516,17.7919844 18.7763956,18.3606426 18.7763956,19.0625 L18.7763956,21.6044844 C18.7763956,22.3063418 19.3533516,22.875 20.0654505,22.875 Z" id="Path"></path>
                    <path d="M23.9335824,22.875 C24.6456813,22.875 25.2216703,22.3063418 25.2216703,21.6044844 L25.2216703,19.0625 C25.2216703,18.3606426 24.6455604,17.7919844 23.9335824,17.7919844 C23.2216044,17.7919844 22.6445275,18.3606426 22.6445275,19.0625 L22.6445275,21.6044844 C22.6445275,22.3063418 23.2214835,22.875 23.9335824,22.875 Z" id="Path"></path>
                    <path d="M42.6282637,0 L1.3698022,0 L0.0797802198,0 L0.0797802198,1.27051563 L0.0797802198,2.54198437 L0.0797802198,59.7304375 C0.0797802198,60.4284824 0.370615385,61 0.724791209,61 C1.07896703,61 1.88825275,60.7431328 2.52286813,60.4303887 L5.37392308,59.026793 C5.69123077,58.8704805 6.10862637,58.7922051 6.52698901,58.7922051 C6.94535165,58.7922051 7.36274725,58.8703613 7.68005495,59.026793 L10.5311099,60.4303887 C10.8484176,60.5867012 11.2667802,60.6649766 11.6841758,60.6649766 C12.1025385,60.6649766 12.5209011,60.5868203 12.8382088,60.4303887 L15.6882967,59.026793 C16.0056044,58.8704805 16.423967,58.7922051 16.8423297,58.7922051 C17.2597253,58.7922051 17.6780879,58.8703613 17.9953956,59.026793 L20.8464505,60.4303887 C21.1637582,60.5867012 21.5811538,60.6649766 21.9995165,60.6649766 C22.4178791,60.6649766 22.8352747,60.5868203 23.1525824,60.4303887 L26.0036374,59.026793 C26.3209451,58.8704805 26.7402747,58.7922051 27.1557363,58.7922051 C27.5750659,58.7922051 27.9943956,58.8703613 28.3097692,59.026793 L31.1598571,60.4303887 C31.4771648,60.5867012 31.8964945,60.6649766 32.3157033,60.6649766 C32.7312857,60.6649766 33.1504945,60.5868203 33.4678022,60.4303887 L36.3198242,59.026793 C36.6371319,58.8704805 37.0525934,58.7922051 37.4719231,58.7922051 C37.8912527,58.7922051 38.3067143,58.8703613 38.624022,59.026793 L41.476044,60.4303887 C42.1106593,60.7431328 42.9190989,61 43.2741209,61 C43.6291429,61 43.9200989,60.4284824 43.9200989,59.7304375 L43.9200989,2.54198437 L43.9200989,1.27051563 L43.9200989,0 L42.6282637,0 Z M41.3401758,57.5225234 L39.7781758,56.753709 C38.933956,56.338623 38.0575824,56.2492676 37.472044,56.2492676 C36.8865055,56.2492676 36.0101319,56.338623 35.1659121,56.753709 L32.3913736,58.1201328 C32.3725165,58.1220391 32.346044,58.1257324 32.3158242,58.1257324 C32.2818571,58.1257324 32.2553846,58.1220391 32.2365275,58.1201328 L29.4638022,56.753709 C28.6213956,56.338623 27.745022,56.2492676 27.1557363,56.2492676 C26.5701978,56.2492676 25.6938242,56.338623 24.8515385,56.753709 L22.077,58.1201328 C22.0581429,58.1220391 22.0316703,58.1257324 21.9995165,58.1257324 C21.9673626,58.1257324 21.941011,58.1220391 21.922033,58.1201328 L19.1484615,56.753709 C18.3050879,56.338623 17.4287143,56.2492676 16.8423297,56.2492676 C16.254978,56.2492676 15.3786044,56.338623 14.5352308,56.753709 L11.7616593,58.1201328 C11.7428022,58.1220391 11.7163297,58.1257324 11.6841758,58.1257324 C11.652989,58.1257324 11.6256703,58.1220391 11.6066923,58.1201328 L8.83396703,56.753709 C7.98974725,56.338623 7.11337363,56.2492676 6.52686813,56.2492676 C5.94036264,56.2492676 5.06398901,56.338623 4.21976923,56.753709 L2.65873626,57.5225234 L2.65873626,2.54198437 L41.3401758,2.54198437 L41.3401758,57.5225234 L41.3401758,57.5225234 Z" id="Shape"></path>
                </g>
            </g>
        </g>
    </g>
</svg>