<svg xmlns="http://www.w3.org/2000/svg" viewBox="0 0 12 11"><defs><clipPath id="dv9la"><path fill="#fff" d="M2.816 10.946c-.355.179-.77-.11-.702-.49l.609-3.403-2.577-2.41c-.286-.268-.128-.736.268-.791l3.56-.497L5.567.26a.493.493 0 0 1 .866 0l1.593 3.096 3.56.497c.396.055.554.523.268.791l-2.577 2.41.609 3.404c.067.379-.347.668-.702.489L6 9.339z"/></clipPath></defs><g><g><path fill="none" stroke="#ff3b00" stroke-miterlimit="50" stroke-width="2" d="M2.816 10.946c-.355.179-.77-.11-.702-.49l.609-3.403v0L.146 4.643c-.286-.268-.128-.736.268-.791l3.56-.497v0L5.567.26a.493.493 0 0 1 .866 0l1.593 3.096v0l3.56.497c.396.055.554.523.268.791l-2.577 2.41v0l.609 3.404c.067.379-.347.668-.702.489L6 9.339v0z" clip-path="url(&quot;#dv9la&quot;)"/></g></g></svg>